<?xml version="1.0" standalone="no"?>
<!DOCTYPE svg PUBLIC "-//W3C//DTD SVG 20010904//EN"
 "http://www.w3.org/TR/2001/REC-SVG-20010904/DTD/svg10.dtd">
<svg version="1.0" xmlns="http://www.w3.org/2000/svg"
 width="300.000000pt" height="229.000000pt" viewBox="0 0 300.000000 229.000000"
 preserveAspectRatio="xMidYMid meet">
<metadata>
Created by potrace 1.10, written by Peter Selinger 2001-2011
</metadata>
<g transform="translate(0.000000,229.000000) scale(0.100000,-0.100000)"
fill="#000000" stroke="none">
<path d="M1423 2248 c5 -15 1 -17 -26 -12 -30 4 -30 4 -9 -7 12 -7 22 -16 22
-22 0 -5 7 -3 17 4 14 12 16 12 11 -1 -2 -8 -18 -16 -34 -18 -23 -2 -26 -1
-14 8 21 16 -131 2 -183 -16 -46 -16 -118 -18 -166 -4 -19 5 -46 7 -60 3 l-25
-6 23 -9 23 -8 -23 -21 c-23 -19 -23 -20 -2 -10 39 19 45 12 14 -15 -21 -17
-31 -35 -31 -52 1 -23 2 -25 11 -9 17 28 29 19 13 -10 -19 -38 -18 -79 6 -147
14 -41 17 -63 10 -81 -10 -27 -2 -32 19 -12 11 10 13 10 7 0 -9 -17 5 -16 28
0 16 12 16 14 2 26 -9 8 -16 24 -16 38 0 13 -7 35 -16 48 -17 26 -20 73 -9
125 4 20 10 28 14 21 4 -7 8 2 8 18 0 25 -3 28 -14 19 -22 -18 -25 -3 -2 17
13 13 23 15 27 9 10 -16 48 -34 70 -34 10 0 40 11 66 25 26 14 91 34 146 45
55 11 110 24 123 29 34 13 56 -2 34 -23 -8 -9 -24 -16 -34 -16 -26 -1 -128
-72 -128 -90 -1 -8 -7 -14 -14 -12 -7 1 -10 -2 -6 -8 4 -6 -5 -23 -19 -37 -14
-14 -26 -29 -26 -34 0 -4 -16 -17 -36 -29 -19 -12 -53 -47 -76 -76 -22 -30
-47 -54 -56 -54 -16 0 -66 -49 -58 -57 3 -3 21 -2 41 1 40 8 92 55 135 122
l27 43 12 -38 c29 -99 3 -156 -74 -163 l-40 -4 35 -11 c19 -6 27 -12 16 -12
-15 -1 -16 -4 -6 -16 16 -20 43 -19 83 2 l32 17 -25 6 -25 7 28 13 c29 14 36
30 12 30 -20 0 -19 13 3 33 25 22 51 21 76 -3 24 -22 101 -57 91 -41 -3 6 -12
11 -18 11 -19 1 -57 37 -57 55 0 21 17 54 43 83 27 29 89 30 117 2 34 -34 18
-140 -22 -140 -6 0 -3 10 8 22 l19 21 -28 -18 c-23 -14 -32 -16 -52 -7 -14 7
-25 16 -25 22 0 7 6 8 18 1 27 -14 57 -3 73 26 12 22 11 27 -6 39 -40 29 -105
6 -105 -39 0 -25 42 -64 76 -70 35 -7 68 21 99 83 23 44 32 168 15 200 -8 14
-8 20 -1 16 17 -11 13 5 -6 27 -17 19 -17 20 0 14 19 -7 24 9 5 16 -7 3 -1 6
15 6 36 1 35 20 -2 34 -17 6 -32 21 -36 34 -4 18 -12 23 -36 23 -19 0 -39 10
-56 27 -17 16 -28 22 -31 14 -3 -9 -10 -7 -25 6 -19 16 -20 16 -14 1z m-93
-68 c-14 -4 -41 -8 -60 -8 l-35 1 35 7 c19 4 46 8 60 8 l25 0 -25 -8z m-146
-45 c-54 -39 -83 -44 -106 -17 -31 36 -29 40 12 28 32 -8 49 -7 83 6 63 25 65
21 11 -17z m396 -25 c0 -8 3 -26 7 -40 l6 -24 -28 22 c-35 28 -47 28 -82 -2
l-28 -25 43 6 c56 8 92 -22 92 -77 0 -49 -7 -53 -47 -29 -26 16 -45 20 -77 17
-40 -5 -43 -4 -38 16 9 38 -9 9 -42 -68 -31 -71 -35 -76 -50 -61 -9 9 -20 13
-26 10 -5 -3 -15 7 -22 22 -6 15 -18 35 -25 44 -12 15 -8 24 36 76 65 79 119
121 180 139 28 8 53 20 57 26 8 13 43 -29 44 -52z m-35 -185 c14 -13 25 -29
25 -36 0 -6 -12 1 -27 15 -22 22 -34 27 -63 23 -19 -2 -44 -8 -54 -12 -14 -6
-17 -5 -12 4 23 36 98 40 131 6z m-65 -85 c0 -13 -7 -20 -20 -20 -19 0 -27 20
-13 33 13 14 33 6 33 -13z"/>
<path d="M1800 2209 c0 -4 9 -11 20 -14 25 -8 25 -22 3 -48 -17 -19 -17 -20 5
-15 12 4 20 2 16 -3 -8 -13 10 -11 24 3 19 19 14 2 -18 -62 -17 -33 -26 -60
-22 -60 5 0 14 10 21 23 l12 22 -5 -23 c-4 -23 -4 -23 15 -6 18 17 19 17 13 1
-6 -16 -3 -16 20 -6 23 11 31 9 56 -10 17 -12 30 -18 30 -13 0 15 -36 43 -66
51 -30 8 -43 36 -26 53 8 8 21 3 42 -16 17 -14 42 -26 55 -26 40 0 122 -111
145 -197 6 -24 12 -43 14 -43 2 0 6 18 8 39 2 22 0 37 -3 35 -4 -2 -12 10 -18
26 -7 22 -7 30 2 31 7 0 2 4 -11 10 -13 5 -21 13 -17 19 3 5 0 20 -7 32 -7 13
-13 31 -14 40 -1 15 3 14 26 -5 25 -20 41 -40 114 -140 15 -21 50 -49 79 -63
66 -34 66 -33 42 -51 -20 -15 -20 -15 2 -9 16 5 23 2 28 -15 11 -33 -4 -107
-24 -121 -10 -7 -18 -17 -18 -23 1 -15 -60 -53 -105 -67 -49 -15 -58 -6 -64
63 -11 124 -28 134 -32 19 -4 -89 8 -138 40 -166 21 -19 21 -19 9 4 -7 13 -10
33 -8 45 4 19 4 18 6 -5 1 -33 17 -45 26 -19 3 11 13 25 22 33 15 12 15 11 3
-11 l-12 -24 30 21 c16 12 34 22 39 22 21 0 81 51 96 82 14 29 17 30 17 10 0
-14 4 -21 11 -16 7 4 9 26 7 56 -4 35 -2 46 5 39 6 -6 22 -11 37 -11 25 0 25
0 -7 20 -17 10 -37 29 -44 41 -10 20 -9 21 7 14 11 -4 30 -9 44 -12 21 -3 19
-1 -10 15 -19 10 -89 72 -155 136 -66 65 -138 129 -159 144 -38 26 -38 27 -15
33 23 5 23 6 -7 13 -20 4 -48 1 -79 -10 l-49 -16 -33 36 c-18 20 -33 45 -33
57 0 12 -5 19 -12 16 -7 -2 -18 3 -25 12 -11 16 -93 25 -93 10z m520 -347
c-16 -6 -67 36 -89 74 -21 34 -19 34 38 -18 33 -29 56 -54 51 -56z"/>
<path d="M1611 2196 c2 -2 38 -6 79 -9 46 -3 63 -2 45 3 -30 8 -132 13 -124 6z"/>
<path d="M1867 1981 c-17 -17 -25 -33 -22 -43 4 -9 2 -19 -4 -23 -6 -3 -21
-27 -33 -53 -26 -57 -28 -143 -5 -188 24 -46 73 -84 108 -84 18 0 28 -4 24
-10 -3 -5 -1 -10 5 -10 6 0 9 -4 6 -9 -3 -5 0 -14 8 -20 8 -7 12 -29 11 -57
-1 -39 0 -44 11 -30 9 13 13 14 17 4 3 -7 6 -3 6 10 1 22 3 22 35 -12 18 -20
36 -36 40 -36 10 0 7 50 -5 71 -9 18 -8 19 18 13 27 -6 27 -6 8 10 -16 13 -17
15 -2 10 21 -8 22 2 1 23 -22 22 -12 75 21 119 18 24 24 39 17 47 -5 7 -6 21
-1 32 18 45 6 36 -26 -20 -36 -62 -52 -108 -64 -185 l-8 -45 -13 27 c-7 15
-16 25 -20 23 -4 -3 -10 4 -13 15 -3 12 1 24 11 30 13 7 10 9 -17 10 l-35 0
30 31 c28 29 29 35 31 127 1 53 -1 89 -3 80 -5 -15 -9 -16 -26 -7 -20 11 -20
10 -4 -12 27 -39 18 -49 -14 -17 -27 27 -36 30 -73 25 l-42 -6 25 19 25 19
-24 -6 c-21 -5 -22 -3 -16 17 24 75 35 90 65 90 23 0 35 -7 50 -32 13 -21 20
-27 20 -16 0 25 -32 88 -44 88 -6 0 -20 2 -31 4 -12 3 -31 -6 -48 -23z m88
-196 c27 -26 33 -73 15 -119 -8 -23 -15 -26 -55 -26 -52 0 -89 15 -79 32 4 7
3 8 -4 4 -8 -4 -16 3 -22 19 -12 31 8 87 37 104 33 19 82 13 108 -14z"/>
<path d="M1863 1753 c2 -32 -28 -45 -36 -16 -3 10 -5 4 -4 -13 1 -27 4 -30 35
-32 21 -2 42 4 53 14 21 19 24 13 9 -17 -6 -10 -18 -19 -28 -20 -11 0 -13 -2
-4 -6 19 -7 52 26 52 53 0 23 -42 64 -66 64 -8 0 -12 -11 -11 -27z"/>
<path d="M1619 1729 c-10 -6 -3 -9 19 -9 37 0 97 -23 126 -48 20 -16 20 -16 7
1 -29 37 -126 73 -152 56z"/>
<path d="M1535 1670 c-24 -26 -14 -60 34 -110 45 -48 75 -51 137 -15 45 27 60
52 49 86 -17 51 -182 81 -220 39z m166 -11 l23 -12 -27 -14 c-15 -7 -27 -16
-27 -19 0 -3 5 -2 10 1 12 8 13 3 0 -29 -9 -26 -38 -34 -73 -20 -13 5 -13 9 0
35 19 38 9 52 -30 44 -28 -5 -29 -4 -13 6 15 9 31 9 69 0 59 -13 77 -7 21 8
-76 19 -78 20 -27 16 29 -2 62 -9 74 -16z"/>
<path d="M1333 1643 c-7 -2 -13 -9 -13 -14 0 -4 7 -6 15 -3 16 6 16 6 35 -69
7 -26 27 -67 43 -90 22 -30 30 -51 28 -74 -11 -129 177 -186 232 -71 12 27 25
36 60 45 43 12 82 43 134 107 13 15 27 25 33 21 5 -3 10 -2 10 3 0 24 -31 17
-61 -14 -62 -64 -151 -80 -214 -38 -21 14 -25 23 -21 43 6 26 6 26 -10 -2 -14
-26 -19 -28 -52 -22 -80 15 -155 75 -168 133 -12 55 -17 59 -51 45z m231 -218
c4 -10 14 -13 34 -9 32 7 86 -21 76 -38 -3 -5 -13 -3 -23 6 -10 9 -22 16 -27
16 -5 0 -3 -4 5 -9 30 -19 -1 -109 -33 -98 -6 3 -19 0 -28 -5 -31 -15 -64 1
-87 44 -26 49 -26 47 2 58 18 7 19 9 4 9 -10 1 -17 7 -15 14 13 36 88 4 88
-38 0 -31 -13 -32 -33 -2 -15 21 -15 20 -4 -13 6 -19 13 -37 14 -39 6 -9 33
23 33 40 0 10 8 23 18 28 15 9 15 10 -4 11 -11 0 -29 9 -39 20 -15 17 -16 20
-3 20 9 0 18 -7 22 -15z"/>
<path d="M1461 1627 c-2 -51 35 -99 92 -120 28 -10 20 1 -13 18 -35 18 -60 52
-70 98 -8 32 -8 32 -9 4z"/>
<path d="M491 1583 l-31 -38 0 30 c0 23 -3 27 -10 15 -6 -8 -7 -27 -4 -41 4
-23 -1 -30 -40 -53 -25 -15 -50 -36 -56 -47 -10 -18 -13 -18 -33 -4 -53 37
-120 5 -133 -65 -7 -36 -31 -87 -60 -127 -9 -13 -12 -23 -6 -23 16 0 62 66 84
123 24 60 34 72 66 82 33 10 29 -25 -8 -60 -16 -15 -35 -44 -41 -64 -12 -38
-29 -63 -29 -44 0 6 -14 -2 -30 -19 -18 -17 -37 -28 -45 -24 -15 6 -58 -43
-69 -79 -12 -40 28 -81 121 -126 48 -22 102 -55 119 -71 l32 -30 7 39 c3 22 5
44 4 49 -4 23 3 22 32 -3 17 -16 51 -36 77 -45 29 -10 46 -22 43 -30 -2 -7 -7
-29 -11 -48 -4 -19 -16 -51 -28 -70 -11 -19 -26 -64 -31 -100 -12 -74 -14
-177 -4 -166 4 4 12 -9 18 -29 l10 -37 28 22 c15 12 27 29 27 38 0 12 -7 9
-24 -13 -21 -25 -25 -27 -31 -13 -10 25 13 61 33 53 11 -4 9 1 -6 15 -19 18
-21 28 -16 58 7 39 31 82 44 82 14 0 32 -109 25 -153 -14 -92 -16 -97 -40 -97
-40 0 -50 -24 -34 -77 8 -26 20 -48 26 -50 6 -2 3 13 -8 34 -20 41 -16 83 8
83 8 0 21 -16 29 -36 13 -30 13 -42 3 -66 -9 -22 -9 -32 0 -41 14 -14 14 -24
-1 -24 -7 0 -28 -3 -45 -7 l-33 -8 0 69 c0 130 -9 167 -44 191 -18 12 -42 22
-53 22 -33 0 -63 -46 -63 -94 1 -60 30 -114 99 -179 l61 -59 25 21 c22 16 31
18 51 9 13 -6 24 -20 24 -31 0 -16 2 -17 15 -7 9 7 17 11 19 9 41 -53 45 -81
14 -97 -46 -23 -53 -20 -58 28 l-6 45 -14 -28 c-9 -19 -10 -31 -4 -35 6 -4 13
-15 17 -24 5 -15 1 -18 -27 -18 -37 0 -56 27 -56 83 -1 27 -2 29 -11 15 -7
-12 -7 -30 0 -53 7 -26 6 -35 -3 -35 -36 0 -49 69 -20 101 15 17 15 18 -6 16
-21 -1 -51 -37 -32 -37 6 0 9 -13 9 -28 -1 -24 -5 -28 -22 -24 -11 2 -25 11
-32 20 -13 16 -7 68 11 91 9 11 8 13 -4 9 -8 -2 -20 -20 -26 -39 -9 -27 -9
-38 3 -56 15 -22 14 -23 -19 -23 -33 0 -58 14 -58 33 0 4 5 5 11 1 7 -4 7 1
-1 16 -7 12 -10 33 -7 46 2 13 0 21 -4 18 -5 -3 -9 -15 -9 -27 0 -29 -15 -51
-29 -43 -16 10 -13 41 7 65 13 17 32 23 92 28 55 5 67 9 45 13 -41 8 -134 -15
-151 -37 -20 -27 -17 -69 9 -99 22 -25 31 -27 106 -30 46 -2 89 -8 97 -14 23
-20 86 -30 143 -23 45 5 56 11 70 34 12 22 24 28 58 31 34 2 43 0 43 -13 0 -9
8 -24 19 -33 27 -24 165 -25 192 0 14 12 38 17 87 18 46 1 76 7 94 18 32 21
44 68 27 100 -7 13 -12 37 -11 53 1 17 -3 37 -8 45 -8 11 -9 5 -4 -22 6 -35 5
-38 -18 -38 -14 0 -38 4 -54 10 -17 6 -41 6 -59 1 -27 -8 -26 -8 17 -8 26 0
54 -6 63 -13 20 -17 19 -69 -2 -94 -17 -20 -17 -20 0 -7 9 8 21 11 25 7 11
-12 -29 -36 -60 -36 -25 0 -27 2 -18 26 12 31 4 69 -18 86 -14 10 -15 10 -4
-2 13 -15 16 -78 4 -96 -4 -6 -15 -13 -25 -17 -15 -6 -17 -3 -12 14 10 31 -13
76 -42 84 -25 6 -25 7 30 56 30 27 65 69 77 94 18 38 28 46 63 56 77 21 207
-29 207 -79 0 -15 2 -15 10 -2 11 18 13 13 35 -100 17 -87 33 -128 21 -55 -12
70 -14 115 -6 110 21 -13 39 -160 24 -199 -7 -19 -66 -31 -89 -19 -16 9 -16
11 0 26 9 10 20 15 25 12 17 -11 16 11 -2 27 -10 10 -18 13 -18 8 0 -6 -7 -10
-15 -10 -17 0 -35 -30 -35 -59 0 -27 29 -41 84 -41 34 0 48 5 60 21 14 21 59
49 78 49 5 0 0 -14 -12 -30 -36 -50 -18 -66 65 -61 64 4 75 10 75 41 0 38 26
41 40 5 8 -21 16 -25 52 -25 48 0 61 7 71 32 7 20 -16 48 -40 48 -12 0 -11 6
6 34 12 18 21 37 21 42 0 5 -4 3 -9 -4 -5 -8 -7 3 -7 29 1 25 -4 44 -11 46 -9
3 -13 -11 -13 -50 0 -43 -5 -60 -25 -83 -14 -16 -25 -33 -26 -39 0 -5 -7 17
-15 50 -18 73 -11 118 21 139 31 20 45 20 60 -1 23 -31 34 14 26 106 -5 65 -4
87 8 103 14 20 15 20 28 3 7 -11 13 -33 12 -49 0 -29 -1 -29 -9 -8 -5 12 -11
22 -12 22 -2 0 -2 -24 -2 -52 2 -67 30 -118 63 -118 23 0 24 1 17 63 -3 34
-18 100 -32 147 -14 47 -28 91 -30 98 -2 8 -28 -21 -57 -63 -28 -42 -56 -84
-62 -92 -7 -11 -3 -20 17 -38 15 -12 32 -25 39 -27 9 -3 7 -12 -6 -31 -27 -42
-37 -34 -81 68 -9 22 -25 52 -35 67 -11 14 -19 34 -18 45 0 18 59 73 59 54 0
-5 5 -22 11 -38 8 -22 12 -24 19 -13 6 8 10 11 10 7 0 -15 140 130 140 145 0
8 -9 23 -19 33 -11 9 -37 44 -58 77 -28 44 -45 61 -66 65 -18 4 -26 10 -23 19
4 9 -2 13 -17 11 -18 -2 -23 4 -25 27 -3 22 -6 26 -13 15 -6 -9 -12 -10 -16
-4 -5 6 -15 11 -23 11 -8 1 -28 5 -44 9 -19 5 -27 4 -23 -2 4 -6 19 -13 34
-16 43 -9 96 -49 116 -87 13 -26 17 -49 13 -90 -11 -120 -17 -138 -54 -171
-36 -32 -111 -69 -140 -69 -15 -1 -15 -2 1 -11 11 -6 17 -22 17 -45 0 -22 4
-33 10 -29 6 4 8 15 5 26 -4 11 -2 19 4 19 6 0 11 -7 11 -16 0 -14 3 -14 15
-4 8 7 15 20 16 29 0 9 3 11 5 4 3 -7 11 -10 18 -7 22 9 50 -58 43 -106 -3
-24 -1 -50 6 -60 8 -14 7 -31 -6 -70 -9 -29 -17 -66 -17 -84 0 -17 -5 -48 -11
-69 -8 -30 -15 -37 -34 -37 -27 0 -32 9 -13 28 9 9 9 12 1 12 -7 0 -15 -9 -18
-20 -4 -13 -15 -20 -31 -20 -28 0 -32 23 -6 42 9 7 17 18 17 23 1 21 16 151
22 184 4 24 2 32 -6 27 -6 -4 -11 -23 -11 -42 0 -19 -8 -47 -17 -61 -10 -15
-16 -38 -14 -52 3 -24 2 -24 -20 -10 -25 17 -41 47 -18 34 8 -4 -1 6 -18 23
-35 33 -44 58 -17 48 14 -6 15 -4 4 9 -11 13 -15 13 -22 3 -6 -9 -7 -5 -3 10
3 12 2 22 -3 22 -5 0 -13 15 -17 33 -6 28 -8 29 -14 12 -8 -19 -8 -19 -15 3
-5 15 -13 21 -22 18 -22 -8 -29 42 -13 88 14 42 31 51 38 19 5 -26 31 -53 52
-53 10 0 21 -5 25 -12 5 -8 2 -9 -9 -5 -31 12 -18 -1 34 -33 50 -30 50 -31 35
-55 -9 -13 -16 -32 -16 -42 0 -15 2 -15 14 -3 8 8 18 27 21 43 6 23 1 33 -30
63 -33 31 -37 39 -33 74 3 38 -4 51 -17 30 -12 -19 -95 40 -95 68 0 8 -9 27
-21 43 -34 48 -35 96 -5 153 14 27 26 56 26 64 0 8 10 31 22 51 l21 36 -26
-24 c-15 -13 -36 -47 -46 -75 -12 -29 -20 -42 -21 -31 -1 17 -3 17 -12 -5 -5
-14 -7 -50 -4 -80 4 -43 1 -59 -12 -74 -10 -12 -11 -16 -3 -11 11 6 13 1 9
-25 -5 -30 -4 -32 9 -14 14 18 15 18 28 1 17 -23 10 -47 -25 -85 -28 -31 -29
-31 -101 -25 -75 6 -118 22 -63 24 l29 1 -31 7 c-38 10 -54 19 -54 33 0 6 -7
16 -16 23 -12 8 -14 18 -9 35 l8 24 12 -30 13 -29 1 33 c1 18 7 47 14 65 14
33 64 97 75 97 7 0 37 -56 60 -110 l11 -25 0 26 c1 15 -10 51 -24 82 -21 45
-24 59 -14 78 15 34 136 119 168 119 22 0 30 9 49 52 12 28 20 53 17 56 -3 3
-5 0 -5 -7 0 -7 -5 -9 -12 -5 -7 4 -8 3 -4 -4 4 -7 3 -12 -3 -12 -5 0 -13 -9
-16 -20 -7 -22 -35 -28 -35 -7 0 6 -8 -1 -18 -18 -11 -16 -33 -35 -50 -41 -29
-11 -30 -11 -22 10 4 11 29 53 54 91 26 39 52 88 58 110 13 46 52 90 69 80 8
-6 8 -2 0 13 -15 27 -14 32 4 32 8 0 15 -5 15 -10 0 -6 18 -18 40 -27 22 -10
40 -23 40 -30 0 -7 12 -13 28 -14 15 0 36 -4 47 -9 19 -7 18 -8 -7 -15 -14 -4
-34 -2 -45 3 -10 6 -20 10 -23 10 -13 -2 -50 14 -50 22 0 4 -7 10 -15 14 -12
4 -13 2 -5 -13 5 -11 15 -21 22 -23 9 -3 4 -15 -14 -37 -15 -17 -25 -38 -21
-46 9 -26 -7 -105 -22 -105 -8 0 -19 -10 -26 -22 -10 -19 -9 -20 7 -13 11 4
31 10 46 13 15 2 30 12 33 22 7 23 -4 51 -19 44 -6 -3 -2 2 8 10 11 9 24 16
29 16 4 0 16 7 25 16 15 15 14 16 -14 10 -46 -10 -61 7 -28 33 32 25 31 25 80
5 22 -9 36 -13 32 -9 -17 18 25 30 81 25 l58 -5 -1 43 -1 43 -65 -6 c-100 -10
-186 30 -234 108 -22 35 -36 26 -36 -22 0 -23 -6 -44 -16 -52 -9 -7 -33 -47
-54 -88 -21 -42 -58 -104 -84 -137 -50 -66 -85 -137 -86 -169 0 -11 -15 -32
-34 -47 -44 -35 -94 -112 -108 -165 -11 -46 -19 -51 -37 -29 -29 34 -24 80 15
157 35 67 39 82 38 149 0 89 -26 147 -79 176 -26 14 -31 21 -23 33 6 11 5 26
-3 46 l-12 30 -7 -45 c-4 -25 -6 -47 -4 -50 1 -4 -6 -11 -17 -18 -15 -10 -19
-10 -19 2 0 8 5 18 10 21 15 9 12 25 -5 25 -9 0 -15 -9 -15 -25 0 -65 -54
-113 -90 -80 -10 9 -25 15 -32 12 -8 -4 -7 -6 5 -6 24 -1 21 -27 -5 -45 -41
-29 -120 -16 -166 27 -22 20 -23 20 -40 3 -16 -18 -16 -19 1 -12 12 4 29 -2
44 -14 36 -28 93 -42 131 -31 18 5 32 7 32 4 0 -3 9 5 19 18 11 13 23 20 28
16 4 -5 -1 -15 -11 -23 -17 -12 -17 -14 -4 -14 9 0 20 9 23 20 3 11 13 20 22
20 13 0 13 -3 3 -15 -7 -8 -10 -22 -6 -30 8 -22 -33 -55 -68 -55 -64 0 -150
20 -170 39 -12 11 -42 29 -68 40 -47 20 -58 34 -38 46 5 3 10 17 10 30 0 26
-35 44 -51 28 -6 -6 -1 -9 13 -9 17 1 24 -5 26 -21 3 -18 -2 -23 -18 -23 -11
0 -23 7 -26 15 -5 11 -10 12 -18 5 -9 -7 -11 -2 -8 21 5 34 -16 119 -29 119
-13 0 -11 -21 6 -54 17 -31 11 -102 -5 -75 -5 7 -7 17 -4 21 3 4 -2 20 -11 35
-14 25 -15 25 -9 4 4 -15 1 -27 -7 -32 -11 -6 -10 -12 5 -28 14 -15 15 -23 6
-40 -13 -25 -28 -27 -36 -6 -4 8 -13 15 -22 15 -8 0 -24 7 -34 17 -10 9 -31
18 -46 19 -55 6 -106 98 -62 112 13 5 13 3 1 -12 -8 -9 -11 -19 -8 -22 5 -5
33 37 28 44 -1 1 18 17 41 35 24 18 52 51 63 74 25 52 82 120 91 110 4 -4 -8
-24 -27 -45 -22 -24 -25 -28 -6 -13 28 25 37 20 14 -8 -10 -12 -11 -31 -4 -79
5 -34 13 -60 17 -57 5 3 4 20 -1 38 -16 55 -11 92 15 116 13 13 27 33 30 44 4
12 31 40 61 62 29 22 58 50 64 62 6 14 16 20 25 17 8 -3 17 0 21 6 6 9 10 9
16 -1 7 -11 9 -10 9 3 0 10 12 24 28 32 l27 15 -24 1 c-14 0 -35 -10 -48 -22
-26 -25 -31 -13 -7 20 25 37 -2 25 -35 -15z m379 -529 c0 -8 4 -13 9 -10 17
11 20 -52 5 -83 -9 -17 -14 -36 -12 -43 2 -6 12 4 21 23 9 19 17 28 17 21 0
-7 4 -11 9 -8 5 3 12 -1 15 -10 9 -23 7 -52 -3 -56 -4 -1 -11 -27 -15 -56 -5
-37 -4 -52 4 -47 22 14 8 -23 -19 -49 -27 -26 -28 -32 -34 -144 -4 -64 -8
-134 -11 -156 -2 -23 -1 -35 5 -29 5 5 12 37 15 70 6 58 9 63 37 73 40 14 44
13 67 -10 14 -14 20 -33 20 -65 0 -45 -17 -95 -32 -95 -17 0 -20 31 -4 55 14
21 14 24 1 19 -8 -4 -18 -17 -21 -30 -4 -14 -20 -31 -41 -41 -32 -15 -34 -19
-29 -49 4 -18 2 -35 -3 -38 -6 -4 -11 12 -14 36 l-4 43 -1 -47 c-2 -51 -8 -55
-61 -41 -23 6 -23 9 -17 67 23 212 25 221 59 212 15 -4 17 -2 8 7 -9 9 -18 8
-41 -5 -27 -15 -28 -15 -34 5 -10 38 -6 83 9 103 8 10 15 40 15 67 0 55 19 64
37 17 9 -23 8 -32 -3 -41 -15 -13 -19 -65 -5 -73 4 -3 6 6 3 21 -3 18 1 30 13
39 15 11 16 18 6 46 -10 30 -9 31 4 14 8 -11 15 -27 15 -35 0 -14 2 -14 10 -1
5 8 6 17 1 20 -19 13 -61 106 -61 136 0 18 -4 36 -10 39 -18 11 -10 49 20 103
29 49 50 60 50 26z m-304 -155 c5 -8 0 -10 -17 -6 -23 6 -24 4 -21 -38 2 -24
9 -46 16 -48 8 -3 11 4 8 23 -6 42 32 64 93 55 57 -9 79 -29 71 -66 -4 -23 -2
-26 14 -22 17 4 18 11 13 48 -5 38 -3 44 18 56 22 11 23 11 10 -4 -11 -14 -11
-18 3 -23 9 -3 16 -16 16 -28 0 -17 -2 -18 -10 -6 -8 13 -10 13 -10 -2 0 -9 5
-18 11 -20 6 -2 1 -15 -11 -31 -12 -15 -18 -27 -15 -27 4 0 2 -6 -4 -14 -9
-11 -9 -15 1 -18 8 -3 6 -14 -10 -39 -21 -35 -21 -37 -5 -122 14 -78 14 -89 1
-105 -21 -23 -31 -59 -20 -66 5 -3 13 9 17 27 7 27 9 29 12 10 6 -31 -24 -197
-36 -201 -5 -2 -15 -19 -21 -38 -10 -31 -15 -34 -48 -34 -36 0 -38 3 -72 73
-34 69 -35 76 -35 187 0 86 5 130 19 173 18 55 18 58 1 71 -10 7 -15 18 -12
23 4 6 0 16 -8 23 -17 14 -20 40 -5 40 6 0 -1 17 -15 37 -14 21 -21 39 -16 41
5 2 7 11 4 21 -11 42 42 83 63 50z m1144 -113 c0 -5 11 -24 25 -42 14 -18 25
-37 25 -42 0 -19 -42 -61 -85 -85 -52 -29 -51 -31 -29 76 11 56 13 85 5 112
-16 59 -3 71 30 28 16 -21 29 -42 29 -47z m-1247 -54 c-20 -56 -45 -48 -29 8
9 36 12 39 23 25 6 -10 9 -24 6 -33z m1067 -197 c0 -10 -64 -34 -74 -28 -5 3
2 12 15 19 24 14 59 18 59 9z m-1172 -21 c30 -8 52 -63 52 -128 0 -65 -9 -96
-26 -96 -20 0 -17 28 4 33 10 3 6 5 -10 6 -19 1 -28 6 -28 18 0 9 -9 27 -21
39 -25 27 -37 98 -19 119 14 17 16 17 48 9z m575 -141 c-10 -28 -24 -43 -40
-43 -23 0 -11 33 17 47 32 16 31 16 23 -4z m163 -128 c19 -29 15 -59 -9 -63
-13 -3 -17 3 -17 23 0 14 -5 35 -10 46 -16 29 16 25 36 -6z m-259 0 c21 -9 45
-23 55 -32 22 -20 24 -76 3 -93 -20 -16 -32 -4 -19 18 6 9 7 28 3 42 -7 24 -7
24 -8 -6 -1 -42 -22 -66 -60 -70 -29 -4 -31 -2 -21 16 11 20 4 86 -9 94 -3 2
-6 -19 -6 -47 0 -59 -16 -71 -53 -39 -38 33 -25 87 28 116 33 19 44 19 87 1z
m762 -105 c0 -11 -3 -10 -14 4 -8 11 -15 34 -14 50 l1 31 13 -35 c7 -19 14
-42 14 -50z m-169 7 c0 -5 -6 -7 -12 -5 -7 3 -19 -2 -27 -10 -13 -13 -16 -12
-22 11 -4 15 -5 36 -2 47 5 19 7 18 34 -8 16 -15 29 -31 29 -35z m258 -47 l2
-25 -15 25 c-13 21 -15 22 -13 5 2 -12 -3 -20 -12 -20 -8 0 -16 10 -18 23 -3
20 0 23 25 20 21 -2 29 -9 31 -28z"/>
<path d="M870 801 c0 -17 5 -31 10 -31 6 0 10 11 10 24 0 14 -4 28 -10 31 -6
4 -10 -7 -10 -24z"/>
<path d="M583 864 c-21 -9 -15 -52 8 -64 11 -7 23 -10 25 -7 3 3 20 1 39 -3
19 -4 33 -4 30 0 -3 5 1 10 7 13 27 9 -4 20 -52 18 -53 -1 -68 14 -24 25 14 4
36 1 50 -6 25 -14 45 -7 28 9 -11 11 -94 22 -111 15z"/>
<path d="M617 693 c-4 -3 -7 -17 -7 -30 0 -33 24 -24 28 10 3 26 -7 35 -21 20z"/>
<path d="M802 228 c6 -17 36 -34 45 -24 4 4 -1 14 -11 22 -24 17 -39 18 -34 2z"/>
<path d="M1218 1598 c12 -13 22 -29 22 -36 0 -6 24 -37 54 -69 41 -44 55 -68
61 -101 4 -24 9 -41 13 -38 3 3 11 1 19 -5 39 -33 -10 64 -60 118 -25 27 -58
70 -74 97 -16 27 -35 52 -43 54 -9 3 -6 -5 8 -20z"/>
<path d="M726 1561 c-24 -26 -32 -28 -59 -20 -18 5 -42 14 -54 20 -23 13 -58
5 -48 -10 3 -5 1 -12 -5 -16 -5 -3 -10 -11 -10 -16 0 -6 5 -7 10 -4 20 12 70
24 65 15 -7 -11 2 -16 45 -25 31 -7 33 -6 21 9 -12 14 -12 16 5 10 39 -14 75
-47 95 -85 11 -22 24 -37 29 -34 6 4 10 8 10 11 0 3 -4 3 -8 0 -5 -3 -18 15
-30 39 -15 31 -18 45 -9 49 7 2 0 5 -15 5 -29 1 -40 21 -12 21 10 0 14 6 10
15 -3 9 0 15 10 15 10 0 14 -6 10 -15 -3 -8 0 -15 7 -15 21 -1 69 -49 61 -63
-4 -6 -4 -9 1 -5 4 4 14 3 22 -3 10 -9 13 -8 13 1 0 17 37 -15 62 -55 l20 -30
-4 35 -3 35 32 -15 c32 -15 47 -38 18 -26 -10 4 -15 -1 -15 -14 0 -15 7 -20
25 -20 31 0 34 -29 5 -37 -15 -4 -19 -11 -14 -25 4 -14 2 -18 -5 -14 -7 5 -8
1 -4 -10 5 -13 3 -16 -10 -11 -14 5 -17 0 -17 -28 0 -19 -4 -35 -10 -35 -5 0
-10 -7 -10 -15 0 -26 -28 -16 -38 14 -9 27 -61 88 -62 73 -1 -4 -7 7 -15 23
l-13 30 -1 -32 c-1 -18 5 -37 12 -43 6 -5 22 -18 35 -28 12 -9 25 -30 28 -47
6 -38 24 -85 33 -85 6 1 54 75 108 169 56 97 41 143 -60 184 -32 13 -79 41
-105 63 -26 21 -51 38 -57 36 -5 -2 -7 0 -3 4 13 12 -13 34 -41 34 -17 0 -38
-11 -55 -29z"/>
<path d="M690 1455 c0 -11 11 -15 43 -15 39 1 41 2 23 15 -26 20 -66 19 -66 0z"/>
<path d="M1999 1419 c-1 -8 -1 -17 -1 -20 1 -4 -9 -7 -21 -7 -12 1 -44 -9 -72
-20 -27 -12 -67 -24 -87 -27 -40 -6 -85 -39 -119 -86 -28 -40 -17 -36 28 9 25
25 58 45 93 56 30 10 77 29 103 43 45 23 49 24 72 9 25 -16 25 -16 18 16 -7
37 -12 48 -14 27z"/>
<path d="M680 1401 c-16 -31 -11 -102 10 -150 11 -24 20 -45 20 -46 0 -2 -12
-6 -27 -8 -21 -3 -19 -4 8 -4 22 1 36 6 36 14 0 7 -4 13 -9 13 -4 0 -8 4 -8 9
0 4 11 6 25 3 16 -3 33 2 44 12 10 9 21 13 24 9 10 -9 9 1 -3 32 -11 28 -51
48 -77 38 -14 -5 -13 -7 5 -14 14 -5 20 -14 16 -24 -6 -14 -35 -21 -46 -10
-12 12 6 57 28 71 28 19 56 7 79 -34 16 -27 16 -27 11 -2 -3 14 -6 31 -6 38 0
8 -5 10 -12 6 -8 -5 -9 -2 -4 11 5 15 4 16 -9 5 -12 -10 -15 -10 -15 4 0 26
-46 20 -69 -10 -20 -26 -21 -26 -21 -5 0 12 5 31 10 42 6 10 8 19 6 19 -3 0
-10 -9 -16 -19z"/>
<path d="M427 1389 c-9 -5 -24 -24 -33 -41 l-17 -32 32 27 c18 15 41 27 52 27
10 0 19 7 19 15 0 17 -27 19 -53 4z"/>
<path d="M531 1359 c-1 -4 6 -24 15 -45 9 -22 20 -70 25 -109 l8 -70 -3 70
c-2 44 -11 87 -24 115 -11 25 -21 42 -21 39z"/>
<path d="M2270 1322 c-8 -10 -10 -11 -5 -3 9 14 8 14 -7 3 -10 -8 -14 -20 -11
-29 4 -10 2 -14 -5 -9 -6 3 -14 1 -18 -5 -4 -8 -3 -9 4 -5 17 10 15 2 -9 -39
-17 -28 -20 -45 -15 -76 7 -43 -12 -92 -39 -103 -25 -9 -27 -8 -15 14 10 19 7
24 -13 21 -8 -1 -1 36 15 79 7 20 11 22 18 10 8 -13 10 -12 10 2 0 9 3 23 6
32 5 13 -1 16 -31 16 -46 0 -95 -44 -95 -86 0 -22 3 -25 12 -16 10 10 15 3 25
-30 8 -28 9 -46 2 -54 -7 -8 -6 -13 3 -16 10 -4 10 -8 -1 -21 -12 -15 -11 -17
8 -17 31 0 75 25 93 52 8 13 21 48 28 78 22 99 41 140 75 167 26 21 31 30 23
40 -15 18 -40 16 -58 -5z m-131 -128 c-8 -9 -12 -28 -11 -42 2 -14 0 -22 -7
-18 -21 13 -3 76 21 76 6 0 4 -7 -3 -16z"/>
<path d="M1855 1286 c-26 -27 -57 -47 -90 -57 -48 -16 -50 -18 -53 -58 -4 -46
-3 -46 57 -25 97 34 126 58 135 119 10 62 -4 68 -49 21z m-27 -97 c-20 -13
-29 23 -9 39 14 11 16 10 19 -9 2 -12 -2 -25 -10 -30z"/>
<path d="M2622 1304 c-12 -8 -22 -24 -22 -36 0 -18 2 -19 16 -7 38 31 57 -68
34 -181 -13 -64 5 -114 54 -156 l41 -35 7 29 c5 19 21 36 49 51 23 13 46 36
53 52 7 16 15 26 19 22 12 -11 8 54 -5 82 -6 14 -33 39 -60 55 -26 16 -60 47
-76 69 -22 32 -68 71 -84 71 -2 0 -14 -7 -26 -16z m121 -134 c17 -47 47 -70
47 -36 0 24 21 30 27 7 3 -12 9 -21 14 -21 5 0 9 -7 9 -16 0 -8 -3 -13 -7 -11
-5 3 -8 -11 -9 -30 0 -26 -9 -43 -32 -65 -40 -37 -63 -33 -80 12 -12 33 -12
33 -8 5 4 -28 3 -29 -10 -10 -12 16 -14 40 -9 115 4 52 9 101 11 109 2 7 1 19
-3 25 -5 7 1 2 12 -11 11 -12 28 -45 38 -73z"/>
<path d="M417 1290 c-14 -11 -29 -29 -32 -40 -4 -11 -11 -18 -16 -15 -5 4 -9
1 -9 -4 0 -6 3 -11 8 -11 4 0 7 -15 8 -33 1 -65 50 -105 94 -77 12 8 10 10
-10 10 -39 0 -52 14 -57 61 -4 35 0 50 17 72 25 32 49 34 81 8 l23 -18 -31 4
c-37 6 -63 -17 -63 -56 0 -49 54 -80 99 -57 23 12 27 20 23 44 -2 16 -9 29
-15 28 -7 0 -12 4 -12 9 0 6 3 9 8 8 12 -5 8 11 -9 37 -37 54 -65 62 -107 30z
m71 -72 c4 -19 -27 -33 -41 -19 -7 7 -6 16 3 26 15 18 34 15 38 -7z m42 -63
c-13 -16 -38 -19 -64 -9 -28 11 -17 20 19 16 27 -3 36 0 42 14 4 11 8 13 11 6
2 -7 -2 -19 -8 -27z"/>
<path d="M2494 1265 c-35 -24 -67 -111 -62 -170 6 -66 36 -129 65 -133 12 -2
40 9 62 23 50 34 66 76 57 157 -12 114 -63 165 -122 123z m12 -24 c-3 -5 8
-11 24 -14 19 -4 35 -17 45 -36 18 -35 9 -44 -33 -32 -40 12 -74 -20 -68 -66
5 -43 13 -53 44 -52 21 1 22 2 7 6 -11 3 -24 9 -29 14 -6 5 4 5 22 0 26 -8 34
-6 41 8 6 10 6 23 0 32 -6 10 -9 10 -9 2 0 -7 -7 -13 -16 -13 -11 0 -13 6 -9
19 5 16 2 18 -14 14 -13 -3 -18 -11 -14 -21 4 -15 3 -15 -6 -2 -8 11 -5 20 10
35 18 18 21 19 47 5 21 -12 28 -24 30 -53 3 -34 0 -39 -30 -52 -21 -9 -26 -14
-14 -15 15 0 16 -3 6 -15 -17 -21 -27 -19 -36 8 -7 21 -7 21 -14 2 -6 -18 -9
-16 -22 15 -19 46 -9 193 12 161 6 -10 9 -9 14 7 4 11 6 24 5 28 -2 14 1 24 7
24 3 0 3 -4 0 -9z"/>
<path d="M2302 1258 c-7 -7 -12 -16 -12 -22 0 -6 5 -5 12 2 7 7 20 12 31 12
10 0 15 5 12 10 -8 14 -28 13 -43 -2z"/>
<path d="M2360 1193 c-1 -38 -3 -44 -11 -30 -24 42 -90 6 -88 -49 1 -29 1 -29
9 5 8 33 24 51 47 51 24 0 22 -18 -2 -24 -16 -4 -23 -11 -19 -18 4 -7 3 -8 -4
-4 -17 11 -15 -31 2 -46 13 -11 9 -18 -22 -46 l-37 -34 42 32 c63 47 84 82 90
150 3 33 3 60 -1 60 -3 0 -6 -21 -6 -47z"/>
<path d="M643 1164 c-17 -9 -34 -22 -36 -29 -4 -8 9 -6 36 8 23 11 59 20 79
21 21 0 38 3 38 6 0 14 -87 9 -117 -6z"/>
<path d="M1942 1143 c2 -18 1 -30 -4 -27 -4 3 -8 -2 -8 -10 0 -9 -9 -16 -21
-16 -19 0 -19 -1 4 -22 14 -13 28 -36 31 -53 6 -29 6 -29 -10 -10 -15 19 -15
18 -9 -20 7 -38 6 -39 -9 -20 -12 15 -15 16 -16 5 0 -13 -1 -13 -10 0 -8 12
-10 10 -10 -10 0 -14 -13 -41 -28 -60 -37 -45 -63 -100 -55 -113 3 -6 9 -24
13 -41 7 -38 31 -41 47 -6 l12 25 11 -32 c7 -18 16 -30 21 -27 6 3 17 0 25 -7
14 -11 15 -8 9 27 l-6 39 22 -37 c21 -35 39 -49 39 -30 0 4 -9 53 -20 110 -19
98 -19 105 -3 163 14 50 15 69 5 121 -12 66 -38 110 -30 51z m-27 -257 c-16
-25 -64 -61 -70 -54 -2 2 6 18 17 37 15 23 23 29 29 20 6 -10 9 -9 15 4 3 9
10 17 15 17 5 0 2 -11 -6 -24z m25 -79 c8 -25 8 -29 -2 -19 -19 19 -28 14 -28
-15 -1 -27 -1 -27 -16 -8 -8 11 -24 19 -34 17 -26 -4 -26 22 -1 40 10 7 30 14
44 14 20 2 28 -5 37 -29z"/>
<path d="M752 1124 c-18 -21 -29 -25 -55 -21 -20 3 -45 -2 -65 -14 l-34 -18
30 -15 c27 -14 31 -14 43 0 10 13 10 17 -2 26 -10 7 -8 8 10 4 13 -3 32 -1 42
4 13 8 18 5 23 -13 6 -22 7 -22 21 -3 12 16 22 77 13 76 -2 0 -13 -12 -26 -26z"/>
<path d="M1767 1112 c-5 -7 -5 -21 -2 -32 4 -11 2 -20 -4 -20 -5 0 -16 -3 -24
-6 -8 -3 -22 2 -31 12 -16 15 -18 15 -35 0 -12 -11 -17 -26 -14 -39 4 -18 3
-19 -6 -7 -25 35 -10 -47 16 -84 l26 -39 20 24 c11 13 24 23 29 21 5 -1 7 2 4
6 -3 5 4 18 16 28 21 19 50 77 46 91 -1 5 -8 7 -15 5 -6 -1 -13 10 -15 25 -2
19 -6 24 -11 15z m-67 -83 c0 -9 16 -7 58 8 23 9 12 -23 -17 -51 -16 -16 -37
-26 -48 -24 -18 3 -29 38 -19 64 6 16 26 19 26 3z"/>
<path d="M1797 1002 l-27 -47 30 35 c16 19 30 40 30 47 0 19 -3 17 -33 -35z"/>
<path d="M2292 1008 c-19 -19 -14 -43 13 -72 29 -31 40 -32 83 -6 50 30 40 75
-18 78 -14 1 -34 3 -46 6 -11 3 -26 0 -32 -6z m78 -28 c-20 -13 -47 -13 -55 0
-4 6 9 10 32 10 28 0 34 -3 23 -10z"/>
<path d="M2516 932 c-4 -13 -22 -32 -39 -43 -34 -20 -102 -26 -112 -9 -9 15
-25 2 -25 -21 0 -16 3 -18 19 -9 11 5 28 7 37 3 16 -6 14 -9 -11 -19 -29 -13
-29 -13 -5 -14 30 0 124 61 140 91 6 11 9 25 7 32 -2 7 -7 2 -11 -11z"/>
<path d="M1334 888 c-19 -21 -19 -21 0 -11 29 16 56 5 54 -22 -2 -19 -6 -22
-19 -14 -10 5 -24 9 -33 9 -16 0 -46 -26 -46 -41 0 -5 9 0 20 11 11 11 24 20
29 20 19 0 41 -32 40 -58 -1 -17 -3 -21 -6 -9 -2 9 -11 17 -20 17 -10 0 -13 6
-9 16 4 11 1 14 -12 12 -26 -5 -24 -62 3 -66 17 -3 18 -1 5 8 -13 9 -12 10 5
7 11 -2 19 -10 17 -18 -1 -8 7 -3 18 10 33 39 23 151 -14 151 -7 0 -21 -10
-32 -22z"/>
<path d="M2565 876 c-25 -22 -71 -45 -117 -60 -11 -3 -15 -12 -11 -25 6 -24
33 -29 33 -7 0 17 18 31 28 21 3 -3 0 -10 -8 -15 -13 -9 -13 -10 0 -10 18 0
89 46 107 69 14 18 17 51 5 51 -5 0 -22 -11 -37 -24z"/>
<path d="M1534 868 c-26 -12 -40 -41 -49 -102 -5 -28 -11 -43 -18 -39 -6 3 -7
1 -3 -5 4 -7 9 -12 11 -12 8 0 42 81 35 85 -5 3 -3 16 3 30 14 29 42 32 69 8
10 -9 18 -12 18 -6 0 5 -10 19 -22 30 -18 16 -28 19 -44 11z"/>
<path d="M2932 847 c-20 -23 -24 -63 -8 -76 12 -10 16 -7 25 26 6 21 11 44 11
51 0 16 -15 16 -28 -1z"/>
<path d="M2308 844 c-11 -19 13 -55 44 -67 47 -16 72 -15 76 5 3 15 -2 17 -26
12 -35 -7 -70 9 -81 38 -4 12 -10 17 -13 12z"/>
<path d="M2627 791 c3 -10 0 -22 -6 -25 -6 -4 -11 -11 -11 -17 0 -5 9 0 20 11
11 11 32 20 48 20 31 1 16 13 -30 24 -22 5 -25 3 -21 -13z"/>
<path d="M1567 793 c-3 -3 1 -16 9 -28 12 -19 13 -28 4 -45 -6 -12 -9 -24 -6
-27 5 -6 36 58 36 74 0 11 -37 33 -43 26z"/>
<path d="M1520 770 c-8 -5 -10 -10 -5 -10 6 0 4 -4 -3 -8 -17 -11 -4 -42 17
-42 20 0 41 19 41 37 0 7 -7 10 -17 6 -12 -5 -15 -2 -10 10 7 19 -1 21 -23 7z"/>
<path d="M2704 755 c-8 -21 2 -32 36 -38 21 -5 30 -12 30 -27 0 -21 19 -26 90
-21 38 2 80 39 80 69 0 12 -10 6 -35 -20 -31 -35 -75 -51 -75 -28 0 13 -89 80
-107 80 -7 0 -16 -7 -19 -15z"/>
<path d="M2322 734 c-4 -64 30 -204 49 -204 13 0 11 12 -6 34 -8 11 -15 27
-15 35 1 9 7 1 15 -17 8 -18 19 -31 25 -27 14 9 13 38 -2 54 -7 6 -13 24 -13
39 0 20 -6 28 -22 30 -18 3 -23 11 -26 45 -3 31 -4 34 -5 11z"/>
<path d="M2578 705 c9 -27 21 -53 25 -56 4 -3 7 -10 5 -15 -1 -5 4 -33 11 -62
21 -86 11 -153 -32 -208 -20 -26 -37 -56 -37 -66 0 -20 -11 -23 -27 -7 -6 6
-17 9 -25 7 -8 -3 -4 -10 13 -19 22 -11 25 -18 18 -37 -5 -12 -15 -22 -24 -22
-8 0 -15 -4 -15 -10 0 -5 -5 -10 -11 -10 -8 0 -8 4 0 14 8 10 8 23 -1 52 -12
35 -17 39 -48 40 -31 2 -32 1 -5 -3 34 -6 45 -18 45 -53 0 -49 -79 -31 -81 18
-1 26 -1 26 -12 -6 -8 -27 -14 -32 -30 -28 -19 5 -18 3 4 -19 19 -19 38 -25
91 -28 75 -6 108 9 108 47 0 19 7 25 43 32 38 8 42 12 44 39 1 24 0 25 -4 5
l-5 -24 -14 24 c-13 25 -13 25 -14 3 0 -14 -6 -23 -15 -23 -8 0 -15 6 -15 13
1 19 58 89 62 76 2 -6 9 5 15 25 6 20 7 34 3 31 -4 -3 -3 6 3 20 13 26 52 49
68 40 5 -4 9 -16 9 -27 0 -12 18 -38 40 -59 28 -27 38 -43 34 -56 -5 -12 -1
-11 11 5 16 22 16 24 -1 38 -18 15 -18 15 -1 10 10 -3 27 -6 38 -6 24 0 52
-59 47 -99 -4 -36 -33 -35 -33 2 1 36 -11 34 -32 -6 -17 -31 -18 -31 -21 -8
-3 16 3 30 15 39 17 13 16 14 -7 7 -38 -11 -51 -26 -48 -54 3 -24 7 -26 56
-29 73 -4 86 8 78 73 -3 28 -12 69 -19 90 -12 35 -14 37 -20 16 -5 -20 -10
-23 -34 -17 -15 4 -36 8 -45 9 -9 1 -15 3 -13 6 3 2 -3 10 -13 18 -10 9 -11
12 -2 7 12 -6 12 -3 -2 12 -9 10 -17 28 -19 39 -4 29 10 77 21 70 6 -4 10 10
10 32 l0 38 -29 -62 c-32 -68 -58 -90 -84 -70 -20 15 -37 84 -18 72 9 -5 8 2
-2 22 -8 15 -18 50 -22 76 -5 29 -12 46 -19 44 -6 -2 -16 3 -23 12 -7 9 -4 -6
5 -34z"/>
<path d="M2070 719 c0 -15 -5 -19 -15 -15 -11 4 -15 -1 -15 -19 0 -14 5 -25
10 -25 6 0 10 -8 10 -18 0 -28 20 -42 60 -42 45 0 66 16 73 57 5 26 2 35 -13
43 -27 15 -40 12 -41 -7 0 -14 -2 -13 -9 5 -6 13 -18 22 -30 22 -12 0 -18 5
-15 10 3 6 1 10 -4 10 -6 0 -11 -9 -11 -21z m78 -53 c35 -12 24 -40 -16 -44
-42 -4 -65 13 -50 37 11 18 27 20 66 7z"/>
<path d="M1360 710 c-13 -8 -13 -14 4 -44 l19 -35 38 20 c46 23 50 46 12 55
-16 3 -35 8 -43 10 -8 2 -22 -1 -30 -6z"/>
<path d="M1270 680 c0 -11 4 -20 10 -20 5 0 22 -24 37 -52 23 -44 28 -49 31
-30 4 24 22 31 22 8 0 -22 17 -28 40 -16 16 9 19 8 13 -6 -7 -19 -3 -18 64 28
49 33 50 33 56 11 3 -12 5 -8 6 9 1 33 -12 43 -30 22 -23 -28 -69 -46 -100
-39 -16 4 -29 11 -29 15 0 5 -7 7 -15 4 -22 -9 -65 23 -77 57 -11 33 -28 39
-28 9z"/>
<path d="M2233 670 c-28 -11 -30 -20 -5 -13 12 3 30 -7 50 -27 32 -31 32 -18
2 28 -16 24 -16 24 -47 12z"/>
<path d="M2457 630 c-3 -14 -1 -42 5 -62 12 -41 0 -68 -31 -68 -19 0 -88 23
-97 33 -4 3 -16 2 -26 -4 -11 -6 -35 -9 -54 -7 -19 2 -35 -1 -37 -7 -2 -5 -11
4 -20 21 -16 31 -47 63 -47 49 0 -5 12 -23 26 -42 l26 -34 -94 3 -93 3 -6 40
c-6 37 -6 38 -8 8 0 -18 6 -50 15 -72 13 -34 21 -40 62 -51 45 -11 92 -43 92
-62 0 -5 -4 -7 -9 -4 -4 3 -1 -14 7 -38 14 -38 14 -46 2 -61 -8 -10 -23 -15
-36 -12 -16 3 -24 -2 -27 -15 -3 -10 -10 -18 -16 -18 -9 0 -9 5 -1 20 14 26
-2 89 -31 122 -19 23 -19 22 1 -20 39 -79 13 -139 -50 -115 -18 7 -28 7 -24 1
4 -6 -4 -8 -17 -6 -17 2 -25 10 -27 28 -5 46 -12 70 -21 70 -5 0 -4 -21 1 -46
6 -25 8 -48 5 -51 -10 -10 -46 8 -76 39 -34 35 -39 32 -16 -12 20 -38 55 -47
180 -45 113 2 150 15 175 60 13 23 23 29 52 30 20 1 48 9 62 18 31 21 53 86
38 113 -8 14 -11 15 -12 4 0 -10 -5 -7 -16 8 -8 12 -32 31 -52 42 -36 19 -36
19 -9 20 15 0 27 -3 27 -7 0 -5 13 -17 28 -27 l27 -19 -24 26 -24 27 42 0 c30
0 52 -7 75 -25 18 -14 38 -25 44 -25 6 0 15 -7 20 -16 8 -14 11 -11 21 16 12
37 15 113 4 124 -5 4 -13 22 -19 39 -10 31 -11 31 -17 7z m33 -107 c0 -39 -16
-61 -31 -46 -10 10 -9 16 4 31 9 10 17 24 17 30 0 7 2 12 5 12 3 0 5 -12 5
-27z m-191 -79 c40 -51 14 -124 -44 -124 -22 0 -25 5 -25 33 0 35 -33 97 -52
97 -6 0 -2 -10 10 -23 25 -27 38 -78 25 -101 -11 -19 -28 -8 -37 24 -6 19 -5
21 3 10 6 -8 11 -10 11 -4 0 23 -62 88 -86 91 -43 6 -74 22 -74 38 0 10 7 13
28 9 15 -2 54 -1 87 4 69 10 117 -7 154 -54z"/>
<path d="M2552 558 c-19 -19 -16 -117 4 -125 20 -7 31 10 40 60 5 31 2 43 -13
58 -15 15 -21 17 -31 7z"/>
<path d="M1410 470 c0 -16 5 -30 10 -30 6 0 10 14 10 30 0 17 -4 30 -10 30 -5
0 -10 -13 -10 -30z"/>
<path d="M1197 307 c6 -40 -10 -75 -40 -87 -18 -7 -15 -9 18 -9 22 0 47 4 55
9 11 8 7 9 -14 4 -26 -6 -28 -5 -21 12 14 31 18 91 7 98 -7 4 -9 -5 -5 -27z"/>
<path d="M1770 255 c0 -29 -5 -37 -25 -45 -24 -9 -35 -30 -15 -30 23 0 50 41
50 75 0 19 -2 35 -5 35 -3 0 -5 -16 -5 -35z"/>
</g>
</svg>
